<svg style="transform:scale(.9)" class="icon" viewBox="0 0 1920 1080" xmlns="http://www.w3.org/2000/svg" width="300" height="500"><g><path d="M81 122h197l15 28c4.866 8.62 4.866 8.62 9.754 17.227 3.513 6.205 6.883 12.485 10.246 18.773 4.4 8.226 8.88 16.395 13.5 24.5 5.24 9.192 10.28 18.48 15.27 27.809A936.2 936.2 0 0 0 353.5 259.5c5.24 9.192 10.28 18.48 15.27 27.809A936.2 936.2 0 0 0 380.5 308.5c5.24 9.192 10.28 18.48 15.27 27.809A936.2 936.2 0 0 0 407.5 357.5c5.24 9.192 10.28 18.48 15.27 27.809A936.2 936.2 0 0 0 434.5 406.5c5.24 9.192 10.28 18.48 15.27 27.809A936.2 936.2 0 0 0 461.5 455.5c4.62 8.105 9.1 16.274 13.5 24.5a1176.588 1176.588 0 0 0 15.176 27.457c4.43 7.796 8.703 15.671 12.951 23.567a1009.596 1009.596 0 0 0 11.31 20.351c5.449 9.566 10.705 19.227 15.895 28.935l1.672 3.127 1.563 2.926c1.24 2.28 2.52 4.525 3.835 6.762C539 596 539 596 539 598h2l.64-2.36c1.85-4.951 4.461-9.326 7.11-13.89A977.517 977.517 0 0 0 563 556c4.91-9.18 9.95-18.272 15.105-27.316 4.074-7.171 8.006-14.412 11.895-21.684 4.91-9.18 9.95-18.272 15.105-27.316 4.074-7.171 8.006-14.412 11.895-21.684 4.91-9.18 9.95-18.272 15.105-27.316 4.074-7.171 8.006-14.412 11.895-21.684 4.91-9.18 9.95-18.272 15.105-27.316 4.074-7.171 8.006-14.412 11.895-21.684 4.91-9.18 9.95-18.272 15.105-27.316 4.074-7.171 8.006-14.412 11.895-21.684 4.91-9.18 9.95-18.272 15.105-27.316 4.074-7.171 8.006-14.412 11.895-21.684 4.91-9.18 9.95-18.272 15.105-27.316 4.074-7.171 8.006-14.412 11.895-21.684 4.91-9.18 9.95-18.272 15.105-27.316 4.684-8.244 9.17-16.588 13.64-24.949 4.57-8.522 9.283-16.956 14.081-25.352l1.53-2.68 1.332-2.323c1.517-2.751 2.907-5.57 4.312-8.38h197a104.764 104.764 0 0 1-5.02 10.805l-1.827 3.42-1.966 3.65-1.013 1.889a1186.323 1186.323 0 0 1-15.18 27.357c-4.54 7.988-8.876 16.076-13.182 24.191-5.361 10.105-10.797 20.157-16.388 30.137-3.097 5.548-6.166 11.113-9.236 16.676l-1.044 1.89a2850.947 2850.947 0 0 0-13.832 25.36 1105.238 1105.238 0 0 1-12.687 22.875c-5.186 9.1-10.164 18.303-15.082 27.55a1015.878 1015.878 0 0 1-14.629 26.477c-4.605 8.098-9 16.303-13.373 24.526a889.44 889.44 0 0 1-12.979 23.572c-5.081 8.895-9.95 17.89-14.75 26.938-5.361 10.104-10.797 20.156-16.388 30.136-3.097 5.548-6.166 11.113-9.236 16.676l-1.044 1.89a2850.947 2850.947 0 0 0-13.832 25.36 1105.238 1105.238 0 0 1-12.687 22.875c-5.186 9.101-10.165 18.304-15.083 27.552a889.43 889.43 0 0 1-12.98 23.573c-5.081 8.895-9.95 17.89-14.75 26.938-5.361 10.104-10.797 20.156-16.388 30.136-3.097 5.548-6.166 11.113-9.236 16.676l-1.044 1.89a2850.947 2850.947 0 0 0-13.832 25.36 1105.238 1105.238 0 0 1-12.687 22.875c-5.186 9.101-10.165 18.304-15.083 27.552a889.152 889.152 0 0 1-12.98 23.573c-5.022 8.79-9.825 17.68-14.562 26.625-5.232 9.881-10.587 19.67-16.137 29.379-4.254 7.47-8.327 15.032-12.363 22.621a1074.055 1074.055 0 0 1-15.586 28.277c-4.268 7.506-8.36 15.1-12.414 22.723a1071.136 1071.136 0 0 1-15.584 28.273c-4.625 8.133-9.035 16.374-13.426 24.635C553.55 936.07 547.36 947.073 541 958c-3.96-1.32-4.22-2.756-6.117-6.414l-1.819-3.459-.956-1.851c-1.67-3.23-3.371-6.443-5.069-9.659l-1.038-1.972c-3.051-5.782-6.25-11.473-9.501-17.145-5.15-9.016-10.084-18.137-14.959-27.303a889.44 889.44 0 0 0-12.978-23.572c-5.082-8.895-9.95-17.89-14.75-26.938-5.362-10.104-10.798-20.156-16.389-30.136-3.097-5.548-6.166-11.113-9.236-16.676l-1.044-1.89a3181.347 3181.347 0 0 1-15.427-28.32c-3.593-6.646-7.286-13.228-11.03-19.79-5.119-8.98-10.03-18.058-14.874-27.188-5.362-10.104-10.798-20.156-16.389-30.136-3.097-5.548-6.166-11.113-9.236-16.676l-1.044-1.89a2850.947 2850.947 0 0 1-13.831-25.36 1105.238 1105.238 0 0 0-12.688-22.875c-5.186-9.101-10.165-18.304-15.083-27.552a889.43 889.43 0 0 0-12.98-23.573c-5.081-8.895-9.95-17.89-14.75-26.938-5.361-10.104-10.797-20.156-16.388-30.136-3.097-5.548-6.166-11.113-9.236-16.676l-1.044-1.89a2850.947 2850.947 0 0 1-13.831-25.36 1105.238 1105.238 0 0 0-12.688-22.875c-5.186-9.1-10.164-18.303-15.082-27.55a908.545 908.545 0 0 0-13.043-23.7c-5.149-9.016-10.084-18.137-14.959-27.303a889.44 889.44 0 0 0-12.978-23.572c-5.082-8.895-9.95-17.89-14.75-26.938-5.362-10.104-10.798-20.156-16.389-30.136-3.097-5.548-6.166-11.113-9.236-16.676l-1.044-1.89a2850.947 2850.947 0 0 1-13.831-25.36 1105.238 1105.238 0 0 0-12.688-22.875c-5.186-9.101-10.165-18.304-15.083-27.552a890.269 890.269 0 0 0-12.98-23.573c-5.258-9.21-10.318-18.52-15.312-27.875l-1.081-2.02a2458.404 2458.404 0 0 1-3.028-5.683l-1.765-3.318C82 125 82 125 81 122z" fill="#D739FE"/><path d="M802 122h197a104.764 104.764 0 0 1-5.02 10.805l-1.827 3.42-1.966 3.65-1.013 1.889a1186.323 1186.323 0 0 1-15.18 27.357c-4.54 7.988-8.876 16.076-13.181 24.191-5.362 10.105-10.798 20.157-16.389 30.137-3.097 5.548-6.166 11.113-9.237 16.676l-1.043 1.89a2850.947 2850.947 0 0 0-13.832 25.36 1105.238 1105.238 0 0 1-12.687 22.875c-5.186 9.1-10.164 18.303-15.082 27.55a1015.878 1015.878 0 0 1-14.629 26.477c-4.605 8.098-9 16.303-13.373 24.526a889.44 889.44 0 0 1-12.979 23.572c-5.081 8.895-9.95 17.89-14.75 26.938-5.361 10.104-10.797 20.156-16.388 30.136-3.097 5.548-6.166 11.113-9.237 16.676l-1.043 1.89a2850.947 2850.947 0 0 0-13.832 25.36 1105.238 1105.238 0 0 1-12.687 22.875c-5.186 9.101-10.165 18.304-15.083 27.552a889.43 889.43 0 0 1-12.98 23.573c-5.081 8.895-9.95 17.89-14.75 26.938-5.361 10.104-10.797 20.156-16.388 30.136-3.097 5.548-6.166 11.113-9.237 16.676l-1.043 1.89a2850.947 2850.947 0 0 0-13.832 25.36 1105.238 1105.238 0 0 1-12.687 22.875c-4.85 8.51-9.525 17.103-14.125 25.75a1104.88 1104.88 0 0 1-15.698 28.508c-6.11 10.735-11.959 21.61-17.802 32.492-3.845-1.282-4.06-2.443-5.898-5.977l-1.682-3.185-1.795-3.463c-1.265-2.404-2.537-4.803-3.809-7.203l-.973-1.843c-2.983-5.633-6.113-11.174-9.28-16.704-5.17-9.057-10.124-18.22-15.02-27.426A909.413 909.413 0 0 0 588.5 688.5c-5.07-8.884-9.944-17.86-14.752-26.889a1884.69 1884.69 0 0 0-13.974-25.758 3248.954 3248.954 0 0 1-3.034-5.508c-3.03-5.502-6.093-10.98-9.263-16.404l-1.601-2.779a276.17 276.17 0 0 0-2.955-5l-1.273-2.22-1.12-1.885c-1.256-4.89 2.287-9.819 4.605-13.967l1.919-3.455 2.073-3.697 2.154-3.872a5820.14 5820.14 0 0 1 4.482-8.048 4264.057 4264.057 0 0 0 9.425-17.016l2.01-3.64c4.54-8.221 9.035-16.468 13.491-24.737 4.679-8.679 9.49-17.274 14.368-25.841 4.706-8.294 9.218-16.684 13.714-25.092 4.329-8.072 8.8-16.052 13.336-24.008 4.074-7.171 8.006-14.412 11.895-21.684 4.91-9.18 9.95-18.272 15.105-27.316 4.074-7.171 8.006-14.412 11.895-21.684 4.91-9.18 9.95-18.272 15.105-27.316 4.074-7.171 8.006-14.412 11.895-21.684 4.91-9.18 9.95-18.272 15.105-27.316 4.074-7.171 8.006-14.412 11.895-21.684 4.91-9.18 9.95-18.272 15.105-27.316 4.074-7.171 8.006-14.412 11.895-21.684 4.91-9.18 9.95-18.272 15.105-27.316 4.074-7.171 8.006-14.412 11.895-21.684a1082.68 1082.68 0 0 1 13.563-24.625C789.188 145.665 795.591 133.83 802 122z" fill="#971DA2"/><path d="M560 328a91349.909 91349.909 0 0 1 112.823-.165l2.4-.002c12.793-.013 25.586-.037 38.38-.064 13.14-.029 26.282-.045 39.423-.051 8.1-.004 16.199-.017 24.299-.042 6.225-.018 12.45-.02 18.676-.015 2.543-.001 5.086-.007 7.63-.019 12.805-.055 24.945-.014 37.369 3.358l2.271.582c32.667 8.946 59.923 32.394 76.593 61.408L921 395l1.093 1.928C940.163 429.41 946.28 471.773 937 508l-.536 2.121C930.679 532.542 921.01 553.285 906 571l-1.316 1.553c-21.378 24.955-50.946 41.062-83.764 44.246-5.51.379-11.024.304-16.545.263l-3.621-.013c-2.918-.012-5.836-.028-8.754-.049l.038 2.182a16517.534 16517.534 0 0 1 .498 30.57 4395.022 4395.022 0 0 1 .524 75.237c-.011 8.67-.03 17.34-.06 26.011h-2l-1.126-2.101c-6.635-12.367-13.287-24.72-20.128-36.973-3.539-6.34-7.05-12.695-10.559-19.051l-1.04-1.884a3591.142 3591.142 0 0 1-15.641-28.676 1874.81 1874.81 0 0 0-11.725-21.319c-2.173-3.9-4.338-7.804-6.5-11.71-.33-.598-.662-1.195-1.003-1.81-1.73-3.126-3.449-6.256-5.15-9.397-3.178-5.85-6.4-11.59-10.01-17.188-8.34-13.253-10.692-24.36-10.294-39.861.225-9.853.21-19.703.196-29.557l-.005-5.412c-.003-4.354-.008-8.707-.015-13.061l1.8-.007c14.482-.06 28.964-.135 43.447-.229 7.003-.045 14.007-.084 21.01-.11 6.764-.026 13.526-.067 20.289-.117 2.576-.017 5.152-.028 7.729-.035 3.617-.01 7.233-.037 10.85-.07l3.206.005c11.964-.15 20.182-3.235 28.802-11.476 9.041-9.442 11.211-19.631 11.078-32.395-.645-10.907-5.588-20.43-13.461-27.941-7.653-6.388-16.408-8.762-26.276-8.739h-3.26l-3.535.016-3.765.005c-2.705.004-5.411.01-8.117.018-4.347.014-8.695.02-13.042.024-10.849.013-21.697.037-32.546.061-18.012.04-36.024.062-54.036.013-8.062-.02-16.123-.017-24.184.017a1788.6 1788.6 0 0 1-16.766-.018 728.364 728.364 0 0 0-9.743.009c-3.538.027-7.072.004-10.61-.031l-3.141.059c-6.82-.14-6.82-.14-9.443-2.795-1.297-2.042-2.314-4.052-3.286-6.264l-1.83-3.19-1.701-3.091-.948-1.718c-1.01-1.833-2.015-3.667-3.021-5.501l-2.136-3.881a3627.882 3627.882 0 0 1-14.63-26.924c-3.745-6.926-7.592-13.789-11.484-20.632-3.931-6.918-7.818-13.854-11.563-20.875l-1.149-2.139C560 330.243 560 330.243 560 328z" fill="#FFF"><animateTransform attributeName="transform" type="translate" values="0 0; 0 -100; 0 0; 0 0; 0 0; 0 0;" dur="2s" begin="0.8s" repeatCount="indefinite" fill="freeze" additive="sum"/></path><path d="M970 350h63v211h145c10 17.82 0 35.64 0 54H970V350z" fill="#FFF"><animateTransform attributeName="transform" type="translate" values="0 0; 0 -100; 0 0; 0 0; 0 0; 0 0;" dur="2s" begin="1.2s" repeatCount="indefinite" fill="freeze" additive="sum"/></path><path d="M1220 370h63l.028 15.247c.034 16.632.09 33.264.156 49.897.04 10.083.072 20.166.087 30.249.013 8.791.04 17.583.084 26.374.022 4.653.038 9.305.037 13.957 0 4.386.017 8.77.05 13.156.008 1.603.01 3.207.004 4.81-.046 15.133 3.495 27.12 13.667 38.72 13.823 13.545 31.477 18.106 50.31 18.012 17.14-.427 33.5-7.02 45.577-19.422 10.237-12.67 12.45-24.465 12.432-40.465l.031-4.94c.028-4.444.037-8.888.043-13.331.01-4.654.036-9.308.06-13.961.044-8.801.072-17.601.095-26.402.028-10.024.071-20.049.117-30.073.092-20.61.162-41.219.222-61.828h63c.09 22.263.164 44.525.207 66.788.02 10.339.049 20.677.095 31.016.04 9.018.065 18.036.074 27.054.006 4.769.018 9.537.047 14.306.027 4.502.035 9.004.03 13.506 0 1.639.008 3.278.024 4.918.128 14.21-1.644 28.311-8.165 41.162l-1.035 2.11c-14.338 28.37-40.502 48.097-70.277 58.14-11.67 3.414-23.544 6.126-35.742 6.203l-2.202.017c-1.535.01-3.07.016-4.604.02-2.286.01-4.572.04-6.858.073-31.414.226-61.683-10.979-85.594-31.313-.736-.59-1.472-1.18-2.23-1.79-17.486-14.544-29.624-36.72-32.77-59.21-.087-2.429-.122-4.86-.12-7.29l-.003-2.156c-.001-2.372.004-4.744.01-7.116l-.001-5.116c0-4.621.006-9.243.013-13.864.006-4.833.006-9.665.008-14.498.003-9.148.01-18.296.021-27.443.011-10.416.017-20.832.022-31.248.01-21.423.028-42.846.05-64.269z" fill="#FFF"><animateTransform attributeName="transform" type="translate" values="0 0; 0 -100; 0 0; 0 0; 0 0; 0 0;" dur="2s" begin="1.6s" repeatCount="indefinite" fill="freeze" additive="sum"/></path><path d="M1590 370h4.704c4.225-.001 8.45.01 12.674.024 4.426.013 8.853.014 13.28.016 8.369.007 16.737.023 25.106.043 9.533.022 19.066.033 28.6.043 19.597.021 39.194.058 58.792.101v54l-13.81.028c-15.06.034-30.12.09-45.18.156-9.13.04-18.26.072-27.39.087-7.96.013-15.92.04-23.88.084-4.214.022-8.426.038-12.64.037-3.97 0-7.94.017-11.91.05-1.452.008-2.904.01-4.357.004-8.187-.028-14.683.382-21.833 4.554l-3.25 1.75c-4.776 3.907-8.3 9.377-9.024 15.598-.273 7.29.952 12.688 5.274 18.652 7.858 7.942 17.8 10.076 28.684 10.143l2.077-.001 2.25.01c1.603.008 3.206.013 4.809.017 2.555.007 5.11.023 7.666.041 7.262.052 14.525.1 21.788.116 4.456.01 8.912.04 13.368.081 1.68.012 3.359.018 5.038.015 14.809-.015 29.497 1.805 43.195 7.828l2.101.899c10.733 4.76 19.68 11.659 28.024 19.851l2.34 2.266c14.221 14.684 19.306 32.497 19.13 52.545-.602 21.172-10.662 38.135-25.619 52.709-15.925 13.852-38.196 23.618-59.42 23.6l-3.951.004-4.298-.01h-4.555c-4.11 0-8.222-.006-12.333-.013-4.3-.006-8.6-.006-12.9-.008-8.139-.003-16.277-.01-24.416-.02-9.267-.012-18.534-.018-27.801-.023-19.06-.01-38.118-.028-57.177-.05v-54l13.35-.028c14.561-.034 29.122-.09 43.682-.156 8.828-.04 17.656-.072 26.483-.087a5815.2 5815.2 0 0 0 23.09-.084c4.073-.022 8.146-.038 12.22-.037 3.838 0 7.677-.017 11.516-.05 1.403-.008 2.808-.01 4.211-.004 8.071.028 14.393-.475 21.448-4.554l3.25-1.75c4.334-3.546 6.985-7.958 8.75-13.25.704-7.153.4-13.132-4-19-5.867-6.596-12.831-10.471-21.679-11.376-4.368-.197-8.735-.178-13.107-.163-1.626-.01-3.253-.022-4.88-.036-4.265-.032-8.531-.042-12.797-.047-6.8-.008-13.6-.045-20.4-.092-2.345-.012-4.689-.012-7.033-.01-28.572-.077-55.657-6.226-77.104-26.276l-2.122-1.848c-11.427-10.491-20.85-27.345-22.1-42.908-.92-24.116 3.722-41.885 20.222-60.244l1.777-1.992c18.612-19.707 45.83-27.369 72.067-27.235z" fill="#FFF"><animateTransform attributeName="transform" type="translate" values="0 0; 0 -100; 0 0; 0 0; 0 0; 0 0;" dur="2s" begin="2s" repeatCount="indefinite" fill="freeze" additive="sum"/></path><animateTransform attributeName="transform" type="translate" from="0 -1500" to="0 0" dur="0.6s" begin="0s" fill="freeze" values="0 -1500;0 30;0 -20;0 10;0 -5;0 0" keyTimes="0;0.5;0.6;0.7;0.8;1" keySplines="0.42, 0, 1, 1;0, 0, 0.58, 1;0, 0, 0.58, 1;0, 0, 0.58, 1;0, 0, 0.58, 1" calcMode="spline"/></g><animate attributeName="opacity" from=".2" values="0.2;0.8;1;" keyTimes="0;0.8;1" dur="0.6s" fill="freeze" begin="0s"/></svg>